HIERARCHY
ROOT hip
{
	OFFSET 0.000000 0.000000 0.000000
	CHANNELS 6 Xposition Yposition Zposition Xrotation Zrotation Yrotation 
	JOINT abdomen
	{
		OFFSET 0.000000 3.422050 0.000000
		CHANNELS 3 Xrotation Zrotation Yrotation 
		JOINT chest
		{
			OFFSET 0.000000 8.486693 -0.684411
			CHANNELS 3 Xrotation Zrotation Yrotation 
			JOINT neck
			{
				OFFSET 0.000000 10.266162 -0.273764
				CHANNELS 3 Xrotation Zrotation Yrotation 
				JOINT head
				{
					OFFSET 0.000000 3.148285 0.000000
					CHANNELS 3 Xrotation Zrotation Yrotation 
					End Site
					{
						OFFSET 0.000000 3.148289 0.000000
					}
				}
			}
			JOINT lCollar
			{
				OFFSET 3.422053 6.707223 -0.821293
				CHANNELS 3 Yrotation Zrotation Xrotation 
				JOINT lShldr
				{
					OFFSET 3.285171 0.000000 0.000000
					CHANNELS 3 Zrotation Yrotation Xrotation 
					JOINT lForeArm
					{
						OFFSET 10.129278 0.000000 0.000000
						CHANNELS 3 Yrotation Zrotation Xrotation 
						JOINT lHand
						{
							OFFSET 8.486692 0.000000 0.000000
							CHANNELS 3 Zrotation Yrotation Xrotation 
							End Site
							{
								OFFSET 4.106464 0.000000 0.000000
							}
						}
					}
				}
			}
			JOINT rCollar
			{
				OFFSET -3.558935 6.707223 -0.821293
				CHANNELS 3 Yrotation Zrotation Xrotation 
				JOINT rShldr
				{
					OFFSET -3.148289 0.000000 0.000000
					CHANNELS 3 Zrotation Yrotation Xrotation 
					JOINT rForeArm
					{
						OFFSET -10.266159 0.000000 0.000000
						CHANNELS 3 Yrotation Zrotation Xrotation 
						JOINT rHand
						{
							OFFSET -8.349810 0.000000 0.000000
							CHANNELS 3 Zrotation Yrotation Xrotation 
							End Site
							{
								OFFSET -4.106464 0.000000 0.000000
							}
						}
					}
				}
			}
		}
	}
	JOINT lThigh
	{
		OFFSET 5.338403 -1.642589 1.368821
		CHANNELS 3 Xrotation Zrotation Yrotation 
		JOINT lShin
		{
			OFFSET -2.053232 -20.121670 0.000000
			CHANNELS 3 Xrotation Zrotation Yrotation 
			JOINT lFoot
			{
				OFFSET 0.000000 -19.300380 -1.231939
				CHANNELS 3 Xrotation Yrotation Zrotation 
				End Site
				{
					OFFSET 0.000000 -2.463878 4.653993
				}
			}
		}
	}
	JOINT rThigh
	{
		OFFSET -5.338403 -1.642589 1.368821
		CHANNELS 3 Xrotation Zrotation Yrotation 
		JOINT rShin
		{
			OFFSET 2.053232 -20.121670 0.000000
			CHANNELS 3 Xrotation Zrotation Yrotation 
			JOINT rFoot
			{
				OFFSET 0.000000 -19.300380 -1.231939
				CHANNELS 3 Xrotation Yrotation Zrotation 
				End Site
				{
					OFFSET 0.000000 -2.463878 4.653993
				}
			}
		}
	}
}
MOTION
Frames: 20
Frame Time: 0.033325
0.000000 43.528500 0.000000 0.000000 0.000000 0.000000 0.000000 0.000000 0.000000 0.000000 0.000000 0.000000 0.000000 0.000000 0.000000 0.000000 0.000000 0.000000 0.000000 0.000000 0.000000 0.000000 0.000000 0.000000 0.000000 0.000000 0.000000 0.000000 0.000000 0.000000 0.000000 0.000000 0.000000 0.000000 0.000000 0.000000 0.000000 0.000000 0.000000 0.000000 0.000000 0.000000 0.000000 0.000000 0.000000 0.000000 0.000000 0.000000 0.000000 0.000000 0.000000 0.000000 0.000000 0.000000 0.000000 0.000000 0.000000 0.000000 0.000000 0.000000 
7.998946 11.998247 7.998947 -33.000099 0.000000 0.000000 72.998451 0.000001 -0.000001 19.998167 0.000000 0.000000 30.999151 0.000000 0.000000 0.274519 0.000415 -0.173104 0.000000 0.000000 0.000000 -75.026047 -56.001690 0.011780 -38.001648 0.000000 0.000000 -15.001697 0.000000 0.000000 1.998697 0.000000 0.000000 88.968956 79.002068 29.968996 10.998607 4.996966 0.997376 14.997774 -0.001881 16.998253 -32.001057 41.999001 -30.000582 140.994720 0.000000 0.000000 48.998291 -0.000680 -1.000834 -20.001320 -50.002739 30.000568 134.993393 -0.000002 0.000001 20.996786 0.000000 0.000000 
7.998946 11.998247 8.306715 -33.000099 0.000000 0.000000 72.998451 0.000001 -0.000001 19.998167 0.000000 0.000000 30.758818 0.000000 0.000000 0.274519 0.000415 -0.173104 0.000000 0.000000 0.000000 -74.708427 -55.383377 -0.120213 -39.211918 0.000000 0.000000 -15.487504 -0.007296 -0.456381 1.998697 0.000000 0.000000 88.972778 78.080132 29.972797 10.998607 4.996966 0.997376 14.997774 -0.001881 16.998253 -31.166037 42.916576 -30.122385 140.226227 -0.000000 0.000000 48.998291 -0.000680 -1.000834 -18.968767 -50.308472 30.054653 133.537125 -0.000002 0.000001 20.996786 0.000000 0.000000 
7.998946 11.998247 8.614484 -33.000099 0.000000 0.000000 72.998451 0.000001 -0.000001 19.998169 0.000000 0.000000 30.518389 0.000000 0.000000 0.274519 0.000415 -0.173104 0.000000 0.000000 0.000000 -74.397537 -54.763416 -0.244494 -40.431644 0.000000 0.000000 -15.974284 -0.018490 -0.913660 1.998697 0.000000 0.000000 88.976067 77.157532 29.976074 10.998607 4.996966 0.997376 14.997774 -0.001881 16.998253 -30.319763 43.836674 -30.227617 139.457367 -0.000000 0.000000 48.998291 -0.000680 -1.000834 -17.928890 -50.615131 30.100464 132.078247 -0.000002 0.000001 20.996786 0.000000 0.000000 
7.998946 11.998247 8.922253 -33.000099 0.000000 0.000000 72.998451 0.000001 -0.000001 19.998167 0.000000 0.000000 30.277866 0.000000 0.000000 0.274519 0.000415 -0.173104 0.000000 0.000000 0.000000 -74.092964 -54.141800 -0.361390 -41.660652 0.000000 0.000000 -16.461969 -0.033603 -1.371777 1.998697 0.000000 0.000000 88.978928 76.234421 29.978912 10.998607 4.996966 0.997376 14.997774 -0.001881 16.998253 -29.461498 44.758888 -30.315470 138.688187 -0.000000 0.000000 48.998295 -0.000680 -1.000834 -16.881645 -50.922516 30.137753 130.617233 -0.000002 0.000001 20.996786 0.000000 0.000000 
7.998946 11.998248 9.230021 -33.000099 0.000000 0.000000 72.998451 0.000001 -0.000001 19.998167 0.000000 0.000000 30.037270 0.000000 0.000000 0.274519 0.000415 -0.173104 0.000000 0.000000 0.000000 -73.794479 -53.518646 -0.471215 -42.898769 0.000000 0.000000 -16.950497 -0.052656 -1.830668 1.998697 0.000000 0.000000 88.981407 75.310867 29.981382 10.998607 4.996967 0.997376 14.997774 -0.001881 16.998253 -28.590408 45.682781 -30.385023 137.918777 -0.000000 0.000000 48.998291 -0.000680 -1.000834 -15.827024 -51.230484 30.166330 129.154572 -0.000002 0.000001 20.996788 0.000000 0.000000 
7.998946 11.998248 9.537790 -33.000099 0.000000 0.000000 72.998451 0.000001 -0.000001 19.998167 0.000000 0.000000 29.796572 0.000000 0.000000 0.274519 0.000415 -0.173104 0.000000 0.000000 0.000000 -73.501724 -52.893974 -0.574249 -44.145805 0.000000 0.000000 -17.439800 -0.075669 -2.290271 1.998697 0.000000 0.000000 88.983643 74.387032 29.983591 10.998607 4.996966 0.997376 14.997774 -0.001881 16.998253 -27.705627 46.607914 -30.435328 137.149170 -0.000001 0.000000 48.998291 -0.000680 -1.000834 -14.765018 -51.538883 30.185991 127.690689 -0.000002 0.000001 20.996786 0.000000 0.000000 
7.998946 11.998248 9.845559 -33.000099 0.000000 0.000000 72.998451 0.000001 -0.000001 19.998169 0.000000 0.000000 29.555790 0.000000 0.000000 0.274519 0.000415 -0.173104 0.000000 0.000000 0.000000 -73.214462 -52.267887 -0.670776 -45.401550 0.000000 0.000000 -17.929819 -0.102660 -2.750521 1.998697 0.000000 0.000000 88.985619 73.463036 29.985531 10.998608 4.996967 0.997376 14.997774 -0.001881 16.998253 -26.806202 47.533836 -30.465359 136.379471 -0.000001 0.000000 48.998291 -0.000680 -1.000834 -13.695617 -51.847549 30.196533 126.226105 -0.000002 0.000001 20.996786 0.000000 0.000000 
7.998946 11.998248 10.153328 -33.000099 0.000000 0.000000 72.998451 0.000001 -0.000001 19.998167 0.000000 0.000000 29.314913 0.000000 0.000000 0.274519 0.000415 -0.173104 0.000000 0.000000 0.000000 -72.932381 -51.640408 -0.761060 -46.665806 0.000000 0.000000 -18.420496 -0.133644 -3.211355 1.998697 0.000000 0.000000 88.987381 72.538956 29.987272 10.998607 4.996966 0.997376 14.997774 -0.001881 16.998253 -25.891094 48.460094 -30.474009 135.609726 -0.000001 0.000000 48.998291 -0.000680 -1.000834 -12.618797 -52.156307 30.197752 124.761276 -0.000002 0.000001 20.996786 0.000000 0.000000 
7.998946 11.998248 10.461097 -33.000099 0.000000 0.000000 72.998451 0.000001 -0.000001 19.998167 0.000000 0.000000 29.073965 0.000000 0.000000 0.274519 0.000415 -0.173104 0.000000 0.000000 0.000000 -72.655235 -51.011608 -0.845343 -47.938324 0.000000 0.000000 -18.911760 -0.168637 -3.672710 1.998697 0.000000 0.000000 88.988968 71.614922 29.988844 10.998607 4.996966 0.997376 14.997774 -0.001881 16.998253 -24.959187 49.386189 -30.460096 134.840012 -0.000001 0.000000 48.998291 -0.000680 -1.000834 -11.534560 -52.465008 30.189461 123.296677 -0.000002 0.000001 20.996786 0.000000 0.000000 
7.998946 11.998248 10.768866 -33.000099 0.000000 0.000000 72.998451 0.000001 -0.000001 19.998167 0.000000 0.000000 28.832933 0.000000 0.000000 0.274519 0.000415 -0.173104 0.000000 0.000000 0.000000 -72.382797 -50.381546 -0.923862 -49.218884 0.000000 0.000000 -19.403547 -0.207651 -4.134517 1.998697 0.000000 0.000000 88.990356 70.691040 29.990234 10.998607 4.996966 0.997376 14.997774 -0.001881 16.998253 -24.009293 50.311672 -30.422367 134.070419 -0.000001 0.000000 48.998295 -0.000680 -1.000834 -10.442894 -52.773453 30.171467 121.832802 -0.000001 0.000001 20.996786 0.000000 0.000000 
7.998947 11.998249 11.076634 -33.000099 0.000000 0.000000 72.998451 0.000001 -0.000001 19.998169 0.000000 0.000000 28.591825 0.000000 0.000000 0.274519 0.000415 -0.173104 0.000000 0.000000 0.000000 -72.114838 -49.750267 -0.996818 -50.507236 0.000000 0.000000 -19.895788 -0.250699 -4.596713 1.998697 0.000000 0.000000 88.991669 69.767517 29.991522 10.998607 4.996966 0.997376 14.997774 -0.001881 16.998253 -23.040068 51.236000 -30.359419 133.301010 -0.000001 0.000001 48.998291 -0.000680 -1.000834 -9.343785 -53.081486 30.143564 120.370117 -0.000001 0.000001 20.996786 0.000000 0.000000 
7.998947 11.998249 11.384403 -33.000099 0.000000 0.000000 72.998451 0.000001 -0.000001 19.998167 0.000000 0.000000 28.350636 0.000000 0.000000 0.274519 0.000415 -0.173104 0.000000 0.000000 0.000000 -71.851143 -49.117836 -1.064433 -51.803135 0.000000 0.000000 -20.388428 -0.297789 -5.059233 1.998697 0.000000 0.000000 88.992889 68.844421 29.992714 10.998609 4.996967 0.997376 14.997774 -0.001881 16.998255 -22.050117 52.158688 -30.269804 132.531830 -0.000001 0.000001 48.998291 -0.000680 -1.000834 -8.237244 -53.388947 30.105610 118.909111 -0.000001 0.000001 20.996788 0.000000 0.000000 
7.998947 11.998249 11.692172 -33.000099 0.000000 0.000000 72.998451 0.000001 -0.000001 19.998167 0.000000 0.000000 28.109375 0.000000 0.000000 0.274519 0.000415 -0.173104 0.000000 0.000000 0.000000 -71.591522 -48.484325 -1.126890 -53.106293 0.000000 0.000000 -20.881393 -0.348931 -5.522009 1.998697 0.000000 0.000000 88.993958 67.921806 29.993773 10.998607 4.996967 0.997376 14.997774 -0.001881 16.998253 -21.037874 53.079178 -30.151897 131.762955 -0.000001 0.000001 48.998295 -0.000680 -1.000834 -7.123257 -53.695644 30.057396 117.450226 -0.000001 0.000001 20.996788 0.000000 0.000000 
7.998947 11.998249 11.999941 -33.000099 0.000000 0.000000 72.998451 0.000001 -0.000001 19.998167 0.000000 0.000000 27.868044 0.000000 0.000000 0.274519 0.000415 -0.173104 0.000000 0.000000 0.000000 -71.335785 -47.849781 -1.184373 -54.416447 0.000000 0.000000 -21.374620 -0.404130 -5.984976 1.998697 0.000000 0.000000 88.994972 66.999886 29.994766 10.998608 4.996967 0.997376 14.997774 -0.001881 16.998253 -20.001677 53.996929 -30.003994 130.994461 -0.000002 0.000001 48.998291 -0.000680 -1.000834 -6.001826 -54.001385 29.998745 115.993973 -0.000001 0.000001 20.996786 0.000000 0.000000 
7.998947 11.998249 11.714155 -33.000099 0.000000 0.000000 72.998451 0.000001 -0.000001 19.998169 0.000000 0.000000 27.626637 0.000000 0.000000 0.274519 0.000415 -0.173104 0.000000 0.000000 0.000000 -71.083710 -47.214241 -1.237064 -55.733303 0.000000 0.000000 -21.868042 -0.463391 -6.448066 1.998697 0.000000 0.000000 88.994057 67.855965 29.993864 10.998607 4.996966 0.997376 14.997774 -0.001881 16.998253 -20.964674 53.144821 -30.142345 131.708038 -0.000001 0.000001 48.998295 -0.000680 -1.000834 -7.043397 -53.717506 30.053543 117.346123 -0.000001 0.000001 20.996786 0.000000 0.000000 
7.998947 11.998249 11.428370 -33.000099 0.000000 0.000000 72.998451 0.000001 -0.000001 19.998167 0.000000 0.000000 27.385164 0.000000 0.000000 0.274519 0.000415 -0.173104 0.000000 0.000000 0.000000 -70.835197 -46.577801 -1.285117 -57.056553 0.000000 0.000000 -22.361586 -0.526718 -6.911213 1.998697 0.000000 0.000000 88.993011 68.712547 29.992844 10.998608 4.996966 0.997376 14.997774 -0.001881 16.998253 -21.906910 52.290329 -30.254726 132.421967 -0.000001 0.000001 48.998295 -0.000680 -1.000834 -8.078556 -53.432804 30.099346 118.700562 -0.000001 0.000001 20.996786 0.000000 0.000000 
7.998947 11.998249 11.142585 -33.000099 0.000000 0.000000 72.998451 0.000001 -0.000001 19.998167 0.000000 0.000000 27.143633 0.000000 0.000000 0.274519 0.000415 -0.173104 0.000000 0.000000 0.000000 -70.590027 -45.940487 -1.328697 -58.385918 0.000000 0.000000 -22.855198 -0.594113 -7.374352 1.998697 0.000000 0.000000 88.991974 69.569702 29.991804 10.998608 4.996967 0.997376 14.997774 -0.001881 16.998253 -22.829729 51.433872 -30.342508 133.136154 -0.000001 0.000001 48.998295 -0.000680 -1.000834 -9.107294 -53.147419 30.136284 120.056885 -0.000001 0.000001 20.996786 0.000000 0.000000 
7.998946 11.998248 10.856800 -33.000099 0.000000 0.000000 72.998459 0.000001 -0.000001 19.998167 0.000000 0.000000 26.902031 0.000000 0.000000 0.274519 0.000415 -0.173104 0.000000 0.000000 0.000000 -70.348045 -45.302361 -1.367943 -59.721039 0.000000 0.000000 -23.348799 -0.665574 -7.837412 1.998697 0.000000 0.000000 88.990791 70.427185 29.990631 10.998607 4.996966 0.997376 14.997774 -0.001881 16.998253 -23.734394 50.575893 -30.407009 133.850555 -0.000001 0.000000 48.998291 -0.000680 -1.000834 -10.129621 -52.861507 30.164507 121.414757 -0.000001 0.000001 20.996786 0.000000 0.000000 
7.998946 11.998248 10.571014 -33.000099 0.000000 0.000000 72.998451 0.000001 -0.000001 19.998169 0.000000 0.000000 26.660372 0.000000 0.000000 0.274519 0.000415 -0.173104 0.000000 0.000000 0.000000 -70.109100 -44.663467 -1.403002 -61.061626 0.000000 0.000000 -23.842333 -0.741100 -8.300330 1.998697 0.000000 0.000000 88.989456 71.284927 29.989342 10.998608 4.996967 0.997376 14.997774 -0.001881 16.998255 -24.622072 49.716816 -30.449429 134.565155 -0.000001 0.000000 48.998291 -0.000680 -1.000834 -11.145535 -52.575203 30.184160 122.773758 -0.000002 0.000001 20.996788 0.000000 0.000000 
